HIERARCHY
ROOT Hips
{
	OFFSET 0.000000 0.000000 0.000000
	CHANNELS 6 Xposition Yposition Zposition Zrotation Yrotation Xrotation
	JOINT LHipJoint
	{
		OFFSET 0.000000 0.000000 0.000000
		CHANNELS 3 Zrotation Yrotation Xrotation
		JOINT LeftUpLeg
		{
			OFFSET 0.076937 -0.101296 0.047373
			CHANNELS 3 Zrotation Yrotation Xrotation
			JOINT LeftLeg
			{
				OFFSET 0.138181 -0.379650 0.000000
				CHANNELS 3 Zrotation Yrotation Xrotation
				JOINT LeftFoot
				{
					OFFSET 0.144621 -0.397343 0.000000
					CHANNELS 3 Zrotation Yrotation Xrotation
					JOINT LeftToeBase
					{
						OFFSET 0.008898 -0.024446 0.131094
						CHANNELS 3 Zrotation Yrotation Xrotation
						End Site
						{
							OFFSET 0.000000 0.000000 0.000000
						}
					}
				}
			}
		}
	}
	JOINT RHipJoint
	{
		OFFSET 0.000000 0.000000 0.000000
		CHANNELS 3 Zrotation Yrotation Xrotation
		JOINT RightUpLeg
		{
			OFFSET -0.073689 -0.101296 0.047373
			CHANNELS 3 Zrotation Yrotation Xrotation
			JOINT RightLeg
			{
				OFFSET -0.143511 -0.394292 0.000000
				CHANNELS 3 Zrotation Yrotation Xrotation
				JOINT RightFoot
				{
					OFFSET -0.144963 -0.398282 0.000000
					CHANNELS 3 Zrotation Yrotation Xrotation
					JOINT RightToeBase
					{
						OFFSET -0.009298 -0.025546 0.133386
						CHANNELS 3 Zrotation Yrotation Xrotation
						End Site
						{
							OFFSET 0.000000 0.000000 0.000000
						}
					}
				}
			}
		}
	}
	JOINT LowerBack
	{
		OFFSET 0.000000 0.000000 0.000000
		CHANNELS 3 Zrotation Yrotation Xrotation
		JOINT Spine
		{
			OFFSET 0.001596 0.114897 -0.010915
			CHANNELS 3 Zrotation Yrotation Xrotation
			JOINT Spine1
			{
				OFFSET 0.003201 0.115645 -0.002413
				CHANNELS 3 Zrotation Yrotation Xrotation
				JOINT Neck
				{
					OFFSET 0.000000 0.000000 0.000000
					CHANNELS 3 Zrotation Yrotation Xrotation
					JOINT Neck1
					{
						OFFSET -0.003058 0.098565 0.009709
						CHANNELS 3 Zrotation Yrotation Xrotation
						JOINT Head
						{
							OFFSET 0.005874 0.099418 -0.006997
							CHANNELS 3 Zrotation Yrotation Xrotation
							End Site
							{
								OFFSET 0.000000 0.000000 0.000000
							}
						}
					}
				}
				JOINT LeftShoulder
				{
					OFFSET 0.000000 0.000000 0.000000
					CHANNELS 3 Zrotation Yrotation Xrotation
					JOINT LeftArm
					{
						OFFSET 0.189788 0.067783 -0.017566
						CHANNELS 3 Zrotation Yrotation Xrotation
						JOINT LeftForeArm
						{
							OFFSET 0.281260 -0.000000 -0.000000
							CHANNELS 3 Zrotation Yrotation Xrotation
							JOINT LeftHand
							{
								OFFSET 0.196626 -0.000000 -0.000000
								CHANNELS 3 Zrotation Yrotation Xrotation
								JOINT LeftFingerBase
								{
									OFFSET 0.000000 0.000000 0.000000
									CHANNELS 3 Zrotation Yrotation Xrotation
									JOINT LeftHandIndex1
									{
										OFFSET 0.040372 -0.000000 -0.000000
										CHANNELS 3 Zrotation Yrotation Xrotation
										End Site
										{
											OFFSET 0.000000 0.000000 0.000000
										}
									}
								}
								JOINT LThumb
								{
									OFFSET 0.000000 0.000000 0.000000
									CHANNELS 3 Zrotation Yrotation Xrotation
									End Site
									{
										OFFSET 0.000000 0.000000 0.000000
									}
								}
							}
						}
					}
				}
				JOINT RightShoulder
				{
					OFFSET 0.000000 0.000000 0.000000
					CHANNELS 3 Zrotation Yrotation Xrotation
					JOINT RightArm
					{
						OFFSET -0.177042 0.077557 -0.022840
						CHANNELS 3 Zrotation Yrotation Xrotation
						JOINT RightForeArm
						{
							OFFSET -0.295874 -0.000000 -0.000000
							CHANNELS 3 Zrotation Yrotation Xrotation
							JOINT RightHand
							{
								OFFSET -0.194403 -0.000000 -0.000000
								CHANNELS 3 Zrotation Yrotation Xrotation
								JOINT RightFingerBase
								{
									OFFSET 0.000000 0.000000 0.000000
									CHANNELS 3 Zrotation Yrotation Xrotation
									JOINT RightHandIndex1
									{
										OFFSET -0.035138 -0.000000 -0.000000
										CHANNELS 3 Zrotation Yrotation Xrotation
										End Site
										{
											OFFSET 0.000000 0.000000 0.000000
										}
									}
								}
								JOINT RThumb
								{
									OFFSET 0.000000 0.000000 0.000000
									CHANNELS 3 Zrotation Yrotation Xrotation
									End Site
									{
										OFFSET 0.000000 0.000000 0.000000
									}
								}
							}
						}
					}
				}
			}
		}
	}
}
MOTION
Frames: 6
Frame Time: 0.033333
6.881135 0.964038 -1.915188 0.004844 38.770256 3.021572 -3.059730 21.532044 9.151620 -12.088290 -6.821838 -9.026626 5.863405 7.445793 42.817762 30.815501 -9.063556 6.723416 -9.648138 7.566389 -18.156289 0.147018 -27.961533 -6.915044 29.854296 7.089705 -19.162201 -6.748305 1.184490 32.105576 -33.335670 14.851453 -5.323483 6.020281 -4.053055 -10.193972 1.913569 4.301518 13.940176 9.558837 4.411965 19.107946 -8.703217 -5.480586 -34.353197 -6.690941 10.139401 -14.101676 6.000744 10.158948 15.997471 -0.042241 4.059527 -5.517180 3.399205 24.992759 -0.022679 -77.098520 -15.315521 52.004497 -2.708867 -54.183397 13.701524 9.834696 -13.575386 9.123122 -1.323243 12.476146 0.264902 -0.004522 -0.009727 0.007533 -0.000926 -0.010263 -0.003711 -4.454082 -41.668273 1.305278 70.215091 -0.245406 47.516181 2.167204 32.917874 14.365748 -2.739062 12.278129 4.899720 3.735582 -14.105707 -0.267165 -0.023090 -0.049131 0.025074 -0.005633 0.002634 0.016222 
6.902531 0.966891 -1.877458 -0.299036 39.346551 2.607255 -3.748560 21.879750 8.659951 -10.327782 -8.256354 -12.299119 7.919917 9.279591 51.222599 34.309150 -14.659046 14.858872 -11.524262 12.780395 -15.449297 -0.135667 -27.755220 -7.099780 30.417699 6.039542 -17.026775 -7.926224 0.453419 34.622177 -33.225650 14.186202 -7.509447 5.821771 -3.614972 -10.035087 1.128914 4.283611 13.960031 11.596083 4.772146 18.974901 -8.588415 -6.249801 -33.747723 -6.640195 8.682676 -14.019557 4.975926 9.096856 15.693578 -0.304458 4.322429 -5.605225 3.188972 24.951423 0.561498 -76.682107 -14.092988 51.159855 -3.191695 -55.027056 13.703173 10.156817 -13.481725 9.286004 -1.129729 12.509435 0.320857 -0.003808 -0.012974 0.009077 -0.001392 -0.009447 -0.002737 -4.598194 -40.814747 1.184964 70.690506 0.575164 47.227457 2.076533 33.095294 14.482184 -2.666822 12.574173 4.953780 3.956103 -14.168645 -0.251347 -0.023448 -0.051603 0.025496 -0.002840 0.002917 0.010957 
6.924124 0.971405 -1.842720 -0.638272 40.101137 1.981276 -4.417839 22.859453 7.173418 -9.668097 -9.039403 -15.853644 10.365299 10.136890 60.356583 37.371525 -20.135191 19.341999 -12.624584 16.652971 -11.640937 -0.490385 -27.641407 -6.836679 30.561496 4.455163 -14.449586 -8.751787 -0.355182 35.169871 -34.250468 13.904969 -9.849432 5.520473 -3.242120 -10.071048 0.756585 3.700646 14.382071 12.485251 4.616970 18.924859 -7.723050 -6.518944 -33.749477 -5.810760 4.785818 -13.766268 3.687137 5.577539 15.474577 -0.939807 3.333529 -5.760732 2.904343 26.746006 0.818955 -76.478547 -12.456382 51.099039 -3.863115 -53.781717 14.072978 9.940064 -13.195839 9.298552 -1.376916 12.687226 0.365556 -0.002855 -0.014932 0.009947 -0.000709 -0.007316 -0.002412 -4.420582 -38.946601 1.086040 71.228679 1.663708 47.271809 2.200548 33.088566 14.239126 -2.838876 12.615331 4.925881 3.960842 -14.372854 -0.231259 -0.024924 -0.053915 0.026929 0.000019 0.003252 0.006216 
6.945898 0.976698 -1.810688 -0.870388 40.873713 1.584490 -4.793691 23.765449 5.196225 -10.295745 -9.914174 -19.121288 12.714717 9.705949 67.120750 37.430334 -19.476076 19.725073 -12.551088 17.374561 -9.809979 -0.880779 -27.498135 -6.083387 30.201073 2.773241 -12.280776 -8.893006 -0.932135 34.537677 -34.827098 13.783272 -11.841108 5.270507 -3.005891 -10.039794 0.677079 3.155757 14.892870 12.276287 4.365040 18.752657 -6.916630 -6.075525 -33.849803 -5.075517 1.855385 -13.567717 2.853582 2.865812 15.785003 -1.386966 2.515821 -5.719825 2.585924 28.267934 0.991233 -75.932709 -11.120362 50.991563 -4.350698 -50.916430 14.005594 8.843074 -11.034353 8.472274 -1.927927 13.456370 0.300417 -0.001650 -0.015219 0.010445 0.000490 -0.006628 -0.002852 -3.976679 -37.215475 0.831402 71.546897 2.697771 47.791157 2.038720 32.797789 14.593996 -3.211153 13.102938 5.296420 3.831298 -14.519781 -0.200377 -0.026801 -0.054216 0.027344 0.000418 0.003343 0.003804 
6.968006 0.981648 -1.780376 -1.171217 41.832782 1.373321 -5.061855 24.387307 2.840075 -11.752158 -10.720760 -21.906028 14.361826 8.440010 70.796251 36.185584 -14.736514 18.850904 -11.861758 15.776917 -9.196728 -1.100094 -27.598937 -4.976771 29.524128 1.052425 -10.654072 -8.445081 -1.243458 33.133982 -35.060208 13.898396 -13.444258 5.230621 -2.904509 -10.058191 1.245359 3.005533 15.579238 11.529476 4.244035 18.328099 -6.680305 -5.455210 -34.045274 -4.788136 1.090968 -13.405076 2.870440 2.096732 16.305521 -1.466943 2.156706 -5.524247 2.315827 28.956868 1.342820 -75.225050 -10.105702 51.481304 -4.867663 -47.602962 14.554225 7.915012 -9.784186 8.029337 -2.481490 14.112509 0.240396 -0.000452 -0.015366 0.009735 0.000921 -0.006801 -0.003950 -3.779824 -36.525690 0.317466 71.779670 3.274426 48.633593 1.843182 32.839588 14.783096 -3.393183 13.510159 5.513492 3.696180 -14.646827 -0.171479 -0.027937 -0.053605 0.027087 0.000011 0.003860 0.003986 
6.990220 0.985803 -1.751115 -1.307576 42.413613 1.249817 -5.380307 24.846205 0.761214 -13.360451 -11.451401 -24.375533 14.541086 6.850277 71.831273 33.212735 -8.200995 16.735449 -10.985029 12.562100 -9.736641 -1.181367 -27.675898 -3.740960 28.446401 -0.866521 -9.167342 -7.920539 -1.459980 31.273539 -34.855419 14.291469 -14.794239 5.370998 -3.094264 -10.144030 1.737999 2.844034 16.216700 10.291693 3.967805 18.001818 -6.369050 -4.650260 -34.553663 -4.441627 0.292393 -13.463468 2.978629 1.325029 16.827502 -1.532723 1.687093 -5.229176 2.123303 30.118047 1.637784 -74.403262 -9.014612 51.900031 -5.365990 -44.730985 15.209688 7.128175 -9.335965 7.634260 -2.660167 14.393305 0.243447 0.001015 -0.015240 0.008364 0.001620 -0.007263 -0.004834 -3.717287 -36.003261 -0.299952 71.979822 3.895010 49.479734 2.129106 33.222673 14.558925 -3.582972 13.372624 5.690661 3.546098 -14.680106 -0.181945 -0.028858 -0.051848 0.026098 -0.001562 0.004400 0.005788 
